<?xml version="1.0" encoding="UTF-8" standalone="no"?>
<!DOCTYPE svg PUBLIC "-//W3C//DTD SVG 1.1//EN" "http://www.w3.org/Graphics/SVG/1.1/DTD/svg11.dtd">
<svg width="100%" height="100%" viewBox="0 0 20 20" version="1.1" xmlns="http://www.w3.org/2000/svg" xmlns:xlink="http://www.w3.org/1999/xlink" xml:space="preserve" xmlns:serif="http://www.serif.com/" style="fill-rule:evenodd;clip-rule:evenodd;stroke-linejoin:round;stroke-miterlimit:2;">
    <g transform="matrix(1,0,0,1,-11684,-3058.23)">
        <g id="Artboard7" transform="matrix(1,0,0,1,-1,30.8703)">
            <rect x="11685" y="3027.36" width="20" height="20" style="fill:none;"/>
            <g transform="matrix(0.0290751,0,0,0.0290751,11619.5,2991.6)">
                <path d="M2453.02,1567.71L2412.85,1693.95L2327.53,1693.95L2251.98,1457.86L2333.93,1457.86L2375.01,1591.99L2418.59,1457.86L2491.77,1457.86L2532.95,1593.81L2576.43,1457.86L2651.97,1457.86L2576.43,1693.95L2491.1,1693.95L2453.02,1567.71ZM2759.48,1475.04C2765.36,1470.58 2772.14,1466.65 2779.82,1463.26C2796.12,1456.07 2816.42,1452.47 2840.7,1452.47C2856.66,1452.47 2872.4,1454.15 2887.91,1457.53C2903.43,1460.9 2917.37,1466.07 2929.74,1473.04L2905.79,1530.71C2894.1,1524.87 2882.8,1520.48 2871.9,1517.56C2860.99,1514.64 2850.37,1513.17 2840.03,1513.17C2832.38,1513.17 2826.31,1513.85 2821.81,1515.2C2817.32,1516.55 2814.11,1518.35 2812.2,1520.59C2810.29,1522.84 2809.33,1525.32 2809.33,1528.01C2809.33,1532.06 2811.7,1535.27 2816.42,1537.63C2821.14,1539.99 2827.38,1541.95 2835.13,1543.53C2842.89,1545.1 2851.43,1546.79 2860.77,1548.59C2870.1,1550.39 2879.37,1552.86 2888.59,1556.01C2897.81,1559.15 2906.3,1563.31 2914.05,1568.49C2921.81,1573.66 2928.05,1580.4 2932.77,1588.72C2937.49,1597.04 2939.85,1607.38 2939.85,1619.75C2939.85,1634.14 2935.75,1647.35 2927.54,1659.38C2919.34,1671.41 2907.14,1681.07 2890.95,1688.38C2874.76,1695.69 2851.48,1695.06 2826.97,1695.06C2818.92,1695.06 2810.97,1694.69 2803.14,1693.95L2753.38,1621.34C2754.58,1620.72 2755.77,1620.08 2756.93,1619.42C2767.05,1624.85 2778.17,1629.29 2790.28,1632.73C2804.11,1636.67 2817.54,1638.63 2830.58,1638.63C2838.23,1638.63 2844.24,1638.13 2848.62,1637.12C2853.01,1636.11 2856.21,1634.64 2858.24,1632.73C2860.26,1630.82 2861.27,1628.52 2861.27,1625.82C2861.27,1621.55 2858.91,1618.17 2854.19,1615.7C2849.47,1613.23 2843.23,1611.15 2835.47,1609.46C2827.72,1607.78 2819.23,1605.98 2810.01,1604.07C2800.99,1602.2 2791.92,1599.74 2782.8,1596.68C2783.46,1595.79 2784.09,1594.88 2784.71,1593.95C2793.48,1580.8 2797.86,1565.11 2797.86,1546.9C2797.86,1528.69 2793.48,1512.89 2784.71,1499.52C2778.27,1489.69 2769.86,1481.53 2759.48,1475.04ZM2656.2,1693.95L2656.2,1634.59L2677.88,1634.59L2717.91,1693.95L2656.2,1693.95ZM2656.2,1574.56L2656.2,1519.25L2685.2,1519.25C2696.22,1519.25 2704.37,1521.72 2709.65,1526.66C2714.93,1531.61 2717.58,1538.36 2717.58,1546.9C2717.58,1555.44 2714.93,1562.19 2709.65,1567.14C2704.37,1572.08 2696.22,1574.56 2685.2,1574.56L2656.2,1574.56Z" style="fill:rgb(25,64,80);"/>
            </g>
        </g>
    </g>
</svg>
